# xmcd
#
# Track frame offsets: 
#        150
#        16259
#        32495
#        50301
#        68473
#        83957
#        104659
#        120723
#        140613
#        157899
#        174371
#        190545
#        205183
#        221471
#        235600
#        254154
#        282217
#        298171
#        312538
#        328286
#
# Disc length: 4651 seconds
#
# Revision: 3
# Processed by: cddbd v1.5.1PL0 Copyright (c) Steve Scherf et al.
# Submitted via: ExactAudioCopy v0.95a5
#
DISCID=22122914
DTITLE=Various Artist - Disco Inferno - CD2
DYEAR=2002
DGENRE=Disco Funk
TTITLE0=Tavares - Heaven Must Be Missing An Angel
TTITLE1=Chic - Everybody Dance
TTITLE2=Sister Sledge - All American Girls
TTITLE3=Narada Michael Walden - I Shoulda Loved Ya
TTITLE4=Barry White - You're the First, the Last, My Everything
TTITLE5=Baccara - Yes Sir, I Can Boogie
TTITLE6=Asha Puthli - The Devil is Loose
TTITLE7=Rose Royce - It Makes You Feel Like Dancin'
TTITLE8=Evelyn "C" King - Shame
TTITLE9=Sheila and B Devotion - Love Me Baby
TTITLE10=Chaka Khan - I'm Every Woman
TTITLE11=The Spinners - I'll Be Around
TTITLE12=Sister Sledge - He's the Greatest Dancer
TTITLE13=The Beginning Of The End  - Funky Nassau (Part I)
TTITLE14=Patrice Rushen - Forget Me Nots
TTITLE15=Change - The Glory Of Love
TTITLE16=Gwen McCrae - Keep the Fire Burning
TTITLE17=Patrick Hernandez - Born To Be Alive
TTITLE18=Candi Staton - Nights on Broadway
TTITLE19=Isaac Hayes - Theme From Shaft
EXTD=2002 Italian Release
EXTT0=
EXTT1=
EXTT2=
EXTT3=
EXTT4=
EXTT5=
EXTT6=
EXTT7=
EXTT8=
EXTT9=
EXTT10=
EXTT11=
EXTT12=
EXTT13=
EXTT14=
EXTT15=
EXTT16=
EXTT17=
EXTT18=
EXTT19=
PLAYORDER=
